<?xml version="1.0" standalone="no"?><svg xmlns="http://www.w3.org/2000/svg" viewBox="0 0 1440 320"><path fill="#a2d9ff" fill-opacity="1" d="M0,256L6.9,256C13.7,256,27,256,41,229.3C54.9,203,69,149,82,138.7C96,128,110,160,123,197.3C137.1,235,151,277,165,272C178.3,267,192,213,206,186.7C219.4,160,233,160,247,138.7C260.6,117,274,75,288,101.3C301.7,128,315,224,329,272C342.9,320,357,320,370,277.3C384,235,398,149,411,112C425.1,75,439,85,453,96C466.3,107,480,117,494,149.3C507.4,181,521,235,535,240C548.6,245,562,203,576,186.7C589.7,171,603,181,617,170.7C630.9,160,645,128,658,106.7C672,85,686,75,699,90.7C713.1,107,727,149,741,181.3C754.3,213,768,235,782,245.3C795.4,256,809,256,823,229.3C836.6,203,850,149,864,133.3C877.7,117,891,139,905,165.3C918.9,192,933,224,946,245.3C960,267,974,277,987,277.3C1001.1,277,1015,267,1029,240C1042.3,213,1056,171,1070,170.7C1083.4,171,1097,213,1111,208C1124.6,203,1138,149,1152,128C1165.7,107,1179,117,1193,133.3C1206.9,149,1221,171,1234,165.3C1248,160,1262,128,1275,133.3C1289.1,139,1303,181,1317,186.7C1330.3,192,1344,160,1358,165.3C1371.4,171,1385,213,1399,229.3C1412.6,245,1426,235,1433,229.3L1440,224L1440,320L1433.1,320C1426.3,320,1413,320,1399,320C1385.1,320,1371,320,1358,320C1344,320,1330,320,1317,320C1302.9,320,1289,320,1275,320C1261.7,320,1248,320,1234,320C1220.6,320,1207,320,1193,320C1179.4,320,1166,320,1152,320C1138.3,320,1125,320,1111,320C1097.1,320,1083,320,1070,320C1056,320,1042,320,1029,320C1014.9,320,1001,320,987,320C973.7,320,960,320,946,320C932.6,320,919,320,905,320C891.4,320,878,320,864,320C850.3,320,837,320,823,320C809.1,320,795,320,782,320C768,320,754,320,741,320C726.9,320,713,320,699,320C685.7,320,672,320,658,320C644.6,320,631,320,617,320C603.4,320,590,320,576,320C562.3,320,549,320,535,320C521.1,320,507,320,494,320C480,320,466,320,453,320C438.9,320,425,320,411,320C397.7,320,384,320,370,320C356.6,320,343,320,329,320C315.4,320,302,320,288,320C274.3,320,261,320,247,320C233.1,320,219,320,206,320C192,320,178,320,165,320C150.9,320,137,320,123,320C109.7,320,96,320,82,320C68.6,320,55,320,41,320C27.4,320,14,320,7,320L0,320Z"></path></svg>