<?xml version="1.0" standalone="no"?><svg xmlns="http://www.w3.org/2000/svg" viewBox="0 0 1440 320"><path fill="#00cba9" fill-opacity="1" d="M0,224L8.6,229.3C17.1,235,34,245,51,245.3C68.6,245,86,235,103,224C120,213,137,203,154,197.3C171.4,192,189,192,206,197.3C222.9,203,240,213,257,186.7C274.3,160,291,96,309,69.3C325.7,43,343,53,360,101.3C377.1,149,394,235,411,245.3C428.6,256,446,192,463,176C480,160,497,192,514,202.7C531.4,213,549,203,566,186.7C582.9,171,600,149,617,122.7C634.3,96,651,64,669,42.7C685.7,21,703,11,720,48C737.1,85,754,171,771,197.3C788.6,224,806,192,823,192C840,192,857,224,874,240C891.4,256,909,256,926,234.7C942.9,213,960,171,977,133.3C994.3,96,1011,64,1029,48C1045.7,32,1063,32,1080,37.3C1097.1,43,1114,53,1131,85.3C1148.6,117,1166,171,1183,202.7C1200,235,1217,245,1234,224C1251.4,203,1269,149,1286,128C1302.9,107,1320,117,1337,117.3C1354.3,117,1371,107,1389,122.7C1405.7,139,1423,181,1431,202.7L1440,224L1440,320L1431.4,320C1422.9,320,1406,320,1389,320C1371.4,320,1354,320,1337,320C1320,320,1303,320,1286,320C1268.6,320,1251,320,1234,320C1217.1,320,1200,320,1183,320C1165.7,320,1149,320,1131,320C1114.3,320,1097,320,1080,320C1062.9,320,1046,320,1029,320C1011.4,320,994,320,977,320C960,320,943,320,926,320C908.6,320,891,320,874,320C857.1,320,840,320,823,320C805.7,320,789,320,771,320C754.3,320,737,320,720,320C702.9,320,686,320,669,320C651.4,320,634,320,617,320C600,320,583,320,566,320C548.6,320,531,320,514,320C497.1,320,480,320,463,320C445.7,320,429,320,411,320C394.3,320,377,320,360,320C342.9,320,326,320,309,320C291.4,320,274,320,257,320C240,320,223,320,206,320C188.6,320,171,320,154,320C137.1,320,120,320,103,320C85.7,320,69,320,51,320C34.3,320,17,320,9,320L0,320Z"></path></svg>