<?xml version="1.0" standalone="no"?><svg xmlns="http://www.w3.org/2000/svg" viewBox="0 0 1440 320"><path fill="#a2d9ff" fill-opacity="1" d="M0,128L7.3,128C14.5,128,29,128,44,112C58.2,96,73,64,87,69.3C101.8,75,116,117,131,138.7C145.5,160,160,160,175,149.3C189.1,139,204,117,218,128C232.7,139,247,181,262,197.3C276.4,213,291,203,305,186.7C320,171,335,149,349,138.7C363.6,128,378,128,393,133.3C407.3,139,422,149,436,160C450.9,171,465,181,480,165.3C494.5,149,509,107,524,106.7C538.2,107,553,149,567,165.3C581.8,181,596,171,611,144C625.5,117,640,75,655,64C669.1,53,684,75,698,101.3C712.7,128,727,160,742,149.3C756.4,139,771,85,785,80C800,75,815,117,829,133.3C843.6,149,858,139,873,149.3C887.3,160,902,192,916,197.3C930.9,203,945,181,960,192C974.5,203,989,245,1004,250.7C1018.2,256,1033,224,1047,197.3C1061.8,171,1076,149,1091,154.7C1105.5,160,1120,192,1135,197.3C1149.1,203,1164,181,1178,160C1192.7,139,1207,117,1222,112C1236.4,107,1251,117,1265,122.7C1280,128,1295,128,1309,138.7C1323.6,149,1338,171,1353,192C1367.3,213,1382,235,1396,218.7C1410.9,203,1425,149,1433,122.7L1440,96L1440,320L1432.7,320C1425.5,320,1411,320,1396,320C1381.8,320,1367,320,1353,320C1338.2,320,1324,320,1309,320C1294.5,320,1280,320,1265,320C1250.9,320,1236,320,1222,320C1207.3,320,1193,320,1178,320C1163.6,320,1149,320,1135,320C1120,320,1105,320,1091,320C1076.4,320,1062,320,1047,320C1032.7,320,1018,320,1004,320C989.1,320,975,320,960,320C945.5,320,931,320,916,320C901.8,320,887,320,873,320C858.2,320,844,320,829,320C814.5,320,800,320,785,320C770.9,320,756,320,742,320C727.3,320,713,320,698,320C683.6,320,669,320,655,320C640,320,625,320,611,320C596.4,320,582,320,567,320C552.7,320,538,320,524,320C509.1,320,495,320,480,320C465.5,320,451,320,436,320C421.8,320,407,320,393,320C378.2,320,364,320,349,320C334.5,320,320,320,305,320C290.9,320,276,320,262,320C247.3,320,233,320,218,320C203.6,320,189,320,175,320C160,320,145,320,131,320C116.4,320,102,320,87,320C72.7,320,58,320,44,320C29.1,320,15,320,7,320L0,320Z"></path></svg>